<svg id="Layer_1" data-name="Layer 1" xmlns="http://www.w3.org/2000/svg" viewBox="0 0 720 720"><title>StageDressing</title><rect x="36.5" y="603.5" width="647" height="26"/><path d="M683,604v25H37V604H683m1-1H36v27H684V603Z"/><path d="M72,359l47,13s25,33,43,114,18,99,18,99H72Z"/><polygon points="72 346 120 360 120 370 72 357 72 346"/><path d="M72,108H342s-28.36,80.5-81,153-142,97-142,97L72,344Z"/><path d="M648,359l-47,13s-25,33-43,114-18,99-18,99H648Z"/><polygon points="648 346 600 360 600 370 648 357 648 346"/><path d="M648,108H378s28.36,80.5,81,153,142,97,142,97l47-14Z"/><polygon points="359.91 299 314.83 380 405 380 359.91 299"/><polygon points="269 463 358.51 460.46 312.32 383.01 269 463"/><polygon points="361 450 398 386 322 386 361 450"/><polygon points="357 300 312 379 269 349 357 300"/><polygon points="269 465 359 515 358.92 462.92 269 465"/><polygon points="267 461 268 351 310 381 267 461"/><polygon points="451 463 361.49 460.46 407.68 383.01 451 463"/><polygon points="363 300 408 379 451 349 363 300"/><polygon points="451 465 361 515 361.08 462.92 451 465"/><polygon points="453 461 452 351 410 381 453 461"/></svg>